<svg width="1440" height="4603" viewBox="0 0 1440 4603" fill="none" xmlns="http://www.w3.org/2000/svg">
<g filter="url(#filter0_f_31_100)">
<path d="M1667.26 4603.34C1170.32 4464.46 1280.1 4059.98 818.011 4039.69C355.918 4019.4 101.249 4315.69 -83.2513 4066.69C-98.7513 3582.19 335.155 4244.9 797.249 4265.19C1259.34 4285.48 1453.82 3938.46 1667.26 4603.34Z" fill="#0019BC"/>
<path d="M1598.01 4533.56C1495.01 4603.34 1280.24 4107.05 818.011 4086.76C355.781 4066.46 162.371 4058.53 -245.986 3997.94C-359.008 3816.22 363.281 4202.96 825.511 4223.26C1287.74 4243.55 1374.57 4185.39 1598.01 4533.56Z" fill="#6D87F0"/>
<path d="M1598.01 4533.56C1598.01 4533.56 1233.24 4169.35 771.014 4149.06C308.784 4128.76 189.027 3998.43 -245.986 3997.94C28.514 3883.56 308.784 4146.26 771.014 4166.56C1233.24 4186.85 1420.2 4297.5 1598.01 4533.56Z" fill="white"/>
</g>
<g filter="url(#filter1_d_31_100)">
<g filter="url(#filter2_f_31_100)">
<path d="M1479.43 3265.92C1473.06 3262.05 1459.76 3248.37 1440.95 3236.39C1427.99 3228.14 1403.28 3215.11 1373.53 3201.14C1355.17 3192.53 1343.23 3189.36 1316.6 3183.43C1294.74 3178.56 1255.17 3173.18 1223.71 3170.24C1169.98 3165.22 1142.63 3168.81 1134.11 3169.5C1118.58 3170.76 1108.37 3172.13 1087.81 3175.84C1051.07 3182.46 1023.13 3195.85 1011.67 3201.6C995.488 3209.72 979.371 3215.06 965.731 3221.08C951.745 3227.26 944.542 3235.15 927.716 3246.14C917.044 3253.11 908.866 3260.88 893.91 3273.32C885.483 3280.33 876.156 3294.57 868.125 3305.28C861.425 3314.22 852.853 3326.37 828.545 3358.45C817.146 3373.5 802.454 3388.07 787.24 3406.3C776.62 3419.03 763.979 3426.77 751.064 3437.5C742.291 3444.78 725.725 3451.48 707.227 3459.36C693.888 3465.04 657.436 3466.86 607.546 3464.6C579.761 3463.34 528.345 3452.44 500.108 3447.71C468.467 3442.41 461.762 3440.22 446.949 3436.74C391.765 3423.78 374.594 3418.4 349.348 3413.55C343.827 3412.48 340.541 3411.3 316.091 3407.16C291.64 3403.01 246.147 3395.86 217.87 3391.98C167.354 3385.06 150.397 3387.17 133.646 3388.31C117.761 3389.38 102.127 3390.03 85.5243 3392.63C73.7673 3394.47 63.6105 3397.9 47.9452 3401.51C23.4712 3407.24 8.51923 3413.02 -1.79906 3420.38C-4.35749 3423.17 -7.01204 3426.78 -9.74702 3430.49" stroke="#0019BC" stroke-width="400" stroke-linecap="round"/>
</g>
<g filter="url(#filter3_f_31_100)">
<path d="M1490.36 3257.09C1486.82 3250.59 1472.61 3233.21 1461.21 3224C1448.51 3213.74 1435.1 3208.76 1424.9 3202.81C1415.62 3197.38 1403.83 3195.14 1367.63 3187.81C1335.23 3181.26 1273.66 3172.48 1241.04 3167.62C1201.33 3161.7 1185.36 3164 1174.17 3166.05C1162.54 3168.19 1148.97 3165.9 1139.28 3167.09C1128.4 3168.41 1113.43 3171.17 1104.24 3173.25C1094.16 3175.54 1083.16 3176.19 1074.28 3178.32C1066.23 3180.26 1057.82 3183.06 1045.21 3192.46C1036.56 3198.91 1027.37 3205.94 1017.94 3213.72C1009.39 3220.76 1001.05 3227.36 994.607 3232.88C982.873 3242.92 964.231 3261.73 955.603 3270.47C949.673 3276.48 943.336 3281.85 934.79 3292.45C928.545 3300.19 919.737 3306.92 911.246 3315.11C904.987 3321.14 897.053 3326.17 885.002 3334.31C852.634 3356.17 842.983 3366.01 822.004 3378.74C808.457 3386.95 800.311 3391.38 790.422 3396.07C769.159 3406.17 754.676 3410.83 731.768 3417.26C713.87 3422.29 697.504 3424.66 678.65 3427.94C648.909 3433.11 633.749 3429.86 619.573 3428.45C609.011 3427.4 577.117 3424.76 548.083 3422.9C518.039 3420.97 498.506 3419.44 464.874 3416.88C448.548 3415.63 439.436 3415.59 414.441 3412.48C393.776 3409.91 379.474 3409.42 355.745 3406.51C335.153 3403.98 308.003 3401.43 297.653 3400.63C282.738 3399.47 267.261 3398.29 245.259 3398.89C198.772 3400.17 182.78 3398.04 166.526 3399.28C142.652 3401.1 131.772 3401.42 85.9608 3410.19C66.92 3413.83 53.7858 3426.61 16.0742 3448.05C3.2318 3455.36 -3.37937 3464.89 -14.6705 3474.25C-22.8338 3481.02 -27.8014 3490.94 -31.7219 3497.12C-41.6431 3512.76 -64.0742 3534.1 -66.3414 3542.2C-70.0623 3555.42 -74.1705 3573.29 -78.0398 3583.27C-78.7449 3585.63 -78.9926 3587.2 -79.2478 3588.83" stroke="#6D87F0" stroke-width="200" stroke-linecap="round"/>
</g>
<g filter="url(#filter4_f_31_100)">
<path d="M-78.1638 3606.93C-76.0697 3601.86 -71.0049 3586.41 -57.4702 3558.41C-48.3323 3539.5 -34.0397 3522.1 -18.3464 3501.24C-9.41102 3489.37 -2.91583 3482.43 3.14675 3473.07C13.6098 3456.91 28.1463 3447.16 44.3995 3435.55C57.0109 3426.54 63.8035 3420.66 76.8192 3414.82C88.6483 3409.52 104.813 3405.36 122.178 3401.31C136.31 3398 151.39 3396.91 159.845 3395.27C170.035 3393.29 185.824 3394.18 203.343 3395.58C215.693 3396.57 230.116 3396.26 244.355 3397.14C269.565 3398.71 281.101 3401.02 293.144 3401.56C305.625 3402.12 315.999 3404.34 324.074 3404.79C337.84 3405.57 361.131 3408.19 391.918 3409.78C424.403 3411.45 443.928 3415.77 454.509 3414.73C493.29 3410.92 508.075 3416.08 518.907 3415.88C533.429 3415.61 543.965 3416.84 573.604 3415.54C593.68 3414.65 623.465 3419.01 669.145 3422.14C698.66 3424.16 709.308 3423.84 723.607 3422.29C750.304 3419.38 766.145 3412.15 803.765 3393.41C822.016 3384.32 831.062 3374.57 843.163 3364.25C852.175 3356.56 863.864 3344.98 884.935 3325.05C898.953 3311.79 917.977 3290.87 930.588 3278.24C947.707 3261.1 956.565 3255.73 962.016 3252.26C984.281 3238.05 1023.16 3219.49 1037.85 3213.66C1054.28 3207.12 1067.36 3200.92 1080.22 3194.24C1093.71 3187.24 1105.87 3185.24 1122.18 3181.28C1159.35 3172.27 1175.05 3170.04 1189.71 3168.79C1203.72 3167.6 1216.96 3166.3 1228.4 3166.45C1232.01 3166.5 1236.6 3166.13 1256.97 3169.05C1277.34 3171.96 1313.33 3178.16 1340.13 3184.54C1384.16 3195.01 1408.19 3208.28 1422.63 3216.25C1448.29 3230.4 1472.77 3243.44 1487.74 3252.58C1499.35 3259.67 1520.12 3275.3 1538.93 3289.42C1549.45 3297.31 1559.38 3305.41 1566.26 3311.67C1569.63 3315.17 1572.35 3318.87 1575.55 3323.44C1577.72 3326.22 1581.03 3329.97 1588.02 3336.02" stroke="#E6E6E6" stroke-width="50" stroke-linecap="round"/>
</g>
</g>
<g opacity="0.71">
<g filter="url(#filter5_f_31_100)">
<path d="M0.0254395 365.274L964.826 982.581L-204.352 1492.28L0.0254395 365.274Z" fill="#0019BC"/>
</g>
<g filter="url(#filter6_f_31_100)">
<path d="M-348.901 500.323L623.443 925.231L-350.142 1561.45L-348.901 500.323Z" fill="#6D87F0"/>
</g>
<g filter="url(#filter7_f_31_100)">
<path d="M-481.826 492.406L207.955 960.778L-608.141 1316.55L-481.826 492.406Z" fill="white"/>
</g>
</g>
<g opacity="0.71">
<g filter="url(#filter8_f_31_100)">
<path d="M8.71011 1510.42L839.161 2299.25L-405.38 2578.33L8.71011 1510.42Z" fill="#0019BC"/>
</g>
<g filter="url(#filter9_f_31_100)">
<path d="M-251.215 1487.85L510.424 2226.7L-624.425 2481.19L-251.215 1487.85Z" fill="#6D87F0"/>
</g>
<g filter="url(#filter10_f_31_100)">
<path d="M-488.498 1544L100.113 2134.52L-768.588 2329.32L-488.498 1544Z" fill="white"/>
</g>
</g>
<g opacity="0.71">
<g filter="url(#filter11_f_31_100)">
<path d="M1702.25 1801.89L618.072 2233.27L1689.28 2968.67L1702.25 1801.89Z" fill="#0019BC"/>
</g>
<g filter="url(#filter12_f_31_100)">
<path d="M1956.6 1879.02L956.434 2289.2L1933.23 2959.78L1956.6 1879.02Z" fill="#6D87F0"/>
</g>
<g filter="url(#filter13_f_31_100)">
<path d="M2159.72 2022.02L1379.38 2357.47L2127.09 2870.78L2159.72 2022.02Z" fill="white"/>
</g>
</g>
<g opacity="0.71">
<g filter="url(#filter14_f_31_100)">
<path d="M1843.58 57.6509L1150.09 738.57L579.428 -48.1426L1272.91 -729.061L1843.58 57.6509Z" fill="#0019BC"/>
</g>
<g filter="url(#filter15_f_31_100)">
<path d="M1946.26 -189.754L1300.59 430.036L766.913 -288.451L1412.58 -908.24L1946.26 -189.754Z" fill="#6D87F0"/>
</g>
<g filter="url(#filter16_f_31_100)">
<path d="M1963.73 -432.964L1452.5 40.05L1027.01 -511.356L1538.23 -984.369L1963.73 -432.964Z" fill="white"/>
</g>
</g>
<g opacity="0.71">
<g filter="url(#filter17_f_31_100)">
<path d="M1740.56 1733.79L690.246 1773.44L1304.77 777.334L1740.56 1733.79Z" fill="#0019BC"/>
</g>
<g filter="url(#filter18_f_31_100)">
<path d="M1927.27 1573.92L953.885 1600.42L1514.24 692.108L1927.27 1573.92Z" fill="#6D87F0"/>
</g>
<g filter="url(#filter19_f_31_100)">
<path d="M2042.5 1382.12L1277.43 1390.08L1706.38 694.795L2042.5 1382.12Z" fill="white"/>
</g>
</g>
<defs>
<filter id="filter0_f_31_100" x="-377.819" y="3769.89" width="2165.08" height="953.444" filterUnits="userSpaceOnUse" color-interpolation-filters="sRGB">
<feFlood flood-opacity="0" result="BackgroundImageFix"/>
<feBlend mode="normal" in="SourceGraphic" in2="BackgroundImageFix" result="shape"/>
<feGaussianBlur stdDeviation="60" result="effect1_foregroundBlur_31_100"/>
</filter>
<filter id="filter1_d_31_100" x="-213.76" y="2967.61" width="1897.22" height="729.228" filterUnits="userSpaceOnUse" color-interpolation-filters="sRGB">
<feFlood flood-opacity="0" result="BackgroundImageFix"/>
<feColorMatrix in="SourceAlpha" type="matrix" values="0 0 0 0 0 0 0 0 0 0 0 0 0 0 0 0 0 0 127 0" result="hardAlpha"/>
<feOffset dy="4"/>
<feGaussianBlur stdDeviation="2"/>
<feComposite in2="hardAlpha" operator="out"/>
<feColorMatrix type="matrix" values="0 0 0 0 0 0 0 0 0 0 0 0 0 0 0 0 0 0 0.25 0"/>
<feBlend mode="normal" in2="BackgroundImageFix" result="effect1_dropShadow_31_100"/>
<feBlend mode="normal" in="SourceGraphic" in2="effect1_dropShadow_31_100" result="shape"/>
</filter>
<filter id="filter2_f_31_100" x="-389.76" y="2787.61" width="2249.22" height="1057.93" filterUnits="userSpaceOnUse" color-interpolation-filters="sRGB">
<feFlood flood-opacity="0" result="BackgroundImageFix"/>
<feBlend mode="normal" in="SourceGraphic" in2="BackgroundImageFix" result="shape"/>
<feGaussianBlur stdDeviation="90" result="effect1_foregroundBlur_31_100"/>
</filter>
<filter id="filter3_f_31_100" x="-359.262" y="2883.84" width="2129.64" height="985.002" filterUnits="userSpaceOnUse" color-interpolation-filters="sRGB">
<feFlood flood-opacity="0" result="BackgroundImageFix"/>
<feBlend mode="normal" in="SourceGraphic" in2="BackgroundImageFix" result="shape"/>
<feGaussianBlur stdDeviation="90" result="effect1_foregroundBlur_31_100"/>
</filter>
<filter id="filter4_f_31_100" x="-283.17" y="2961.44" width="2076.19" height="850.493" filterUnits="userSpaceOnUse" color-interpolation-filters="sRGB">
<feFlood flood-opacity="0" result="BackgroundImageFix"/>
<feBlend mode="normal" in="SourceGraphic" in2="BackgroundImageFix" result="shape"/>
<feGaussianBlur stdDeviation="90" result="effect1_foregroundBlur_31_100"/>
</filter>
<filter id="filter5_f_31_100" x="-364.352" y="205.274" width="1489.18" height="1447" filterUnits="userSpaceOnUse" color-interpolation-filters="sRGB">
<feFlood flood-opacity="0" result="BackgroundImageFix"/>
<feBlend mode="normal" in="SourceGraphic" in2="BackgroundImageFix" result="shape"/>
<feGaussianBlur stdDeviation="80" result="effect1_foregroundBlur_31_100"/>
</filter>
<filter id="filter6_f_31_100" x="-510.142" y="340.323" width="1293.58" height="1381.13" filterUnits="userSpaceOnUse" color-interpolation-filters="sRGB">
<feFlood flood-opacity="0" result="BackgroundImageFix"/>
<feBlend mode="normal" in="SourceGraphic" in2="BackgroundImageFix" result="shape"/>
<feGaussianBlur stdDeviation="80" result="effect1_foregroundBlur_31_100"/>
</filter>
<filter id="filter7_f_31_100" x="-768.141" y="332.406" width="1136.1" height="1144.15" filterUnits="userSpaceOnUse" color-interpolation-filters="sRGB">
<feFlood flood-opacity="0" result="BackgroundImageFix"/>
<feBlend mode="normal" in="SourceGraphic" in2="BackgroundImageFix" result="shape"/>
<feGaussianBlur stdDeviation="80" result="effect1_foregroundBlur_31_100"/>
</filter>
<filter id="filter8_f_31_100" x="-565.38" y="1350.42" width="1564.54" height="1387.91" filterUnits="userSpaceOnUse" color-interpolation-filters="sRGB">
<feFlood flood-opacity="0" result="BackgroundImageFix"/>
<feBlend mode="normal" in="SourceGraphic" in2="BackgroundImageFix" result="shape"/>
<feGaussianBlur stdDeviation="80" result="effect1_foregroundBlur_31_100"/>
</filter>
<filter id="filter9_f_31_100" x="-784.425" y="1327.85" width="1454.85" height="1313.33" filterUnits="userSpaceOnUse" color-interpolation-filters="sRGB">
<feFlood flood-opacity="0" result="BackgroundImageFix"/>
<feBlend mode="normal" in="SourceGraphic" in2="BackgroundImageFix" result="shape"/>
<feGaussianBlur stdDeviation="80" result="effect1_foregroundBlur_31_100"/>
</filter>
<filter id="filter10_f_31_100" x="-928.588" y="1384" width="1188.7" height="1105.32" filterUnits="userSpaceOnUse" color-interpolation-filters="sRGB">
<feFlood flood-opacity="0" result="BackgroundImageFix"/>
<feBlend mode="normal" in="SourceGraphic" in2="BackgroundImageFix" result="shape"/>
<feGaussianBlur stdDeviation="80" result="effect1_foregroundBlur_31_100"/>
</filter>
<filter id="filter11_f_31_100" x="458.072" y="1641.89" width="1404.18" height="1486.77" filterUnits="userSpaceOnUse" color-interpolation-filters="sRGB">
<feFlood flood-opacity="0" result="BackgroundImageFix"/>
<feBlend mode="normal" in="SourceGraphic" in2="BackgroundImageFix" result="shape"/>
<feGaussianBlur stdDeviation="80" result="effect1_foregroundBlur_31_100"/>
</filter>
<filter id="filter12_f_31_100" x="796.434" y="1719.02" width="1320.17" height="1400.76" filterUnits="userSpaceOnUse" color-interpolation-filters="sRGB">
<feFlood flood-opacity="0" result="BackgroundImageFix"/>
<feBlend mode="normal" in="SourceGraphic" in2="BackgroundImageFix" result="shape"/>
<feGaussianBlur stdDeviation="80" result="effect1_foregroundBlur_31_100"/>
</filter>
<filter id="filter13_f_31_100" x="1219.38" y="1862.02" width="1100.34" height="1168.76" filterUnits="userSpaceOnUse" color-interpolation-filters="sRGB">
<feFlood flood-opacity="0" result="BackgroundImageFix"/>
<feBlend mode="normal" in="SourceGraphic" in2="BackgroundImageFix" result="shape"/>
<feGaussianBlur stdDeviation="80" result="effect1_foregroundBlur_31_100"/>
</filter>
<filter id="filter14_f_31_100" x="419.428" y="-889.061" width="1584.15" height="1787.63" filterUnits="userSpaceOnUse" color-interpolation-filters="sRGB">
<feFlood flood-opacity="0" result="BackgroundImageFix"/>
<feBlend mode="normal" in="SourceGraphic" in2="BackgroundImageFix" result="shape"/>
<feGaussianBlur stdDeviation="80" result="effect1_foregroundBlur_31_100"/>
</filter>
<filter id="filter15_f_31_100" x="606.913" y="-1068.24" width="1499.35" height="1658.28" filterUnits="userSpaceOnUse" color-interpolation-filters="sRGB">
<feFlood flood-opacity="0" result="BackgroundImageFix"/>
<feBlend mode="normal" in="SourceGraphic" in2="BackgroundImageFix" result="shape"/>
<feGaussianBlur stdDeviation="80" result="effect1_foregroundBlur_31_100"/>
</filter>
<filter id="filter16_f_31_100" x="867.005" y="-1144.37" width="1256.73" height="1344.42" filterUnits="userSpaceOnUse" color-interpolation-filters="sRGB">
<feFlood flood-opacity="0" result="BackgroundImageFix"/>
<feBlend mode="normal" in="SourceGraphic" in2="BackgroundImageFix" result="shape"/>
<feGaussianBlur stdDeviation="80" result="effect1_foregroundBlur_31_100"/>
</filter>
<filter id="filter17_f_31_100" x="530.246" y="617.334" width="1370.31" height="1316.1" filterUnits="userSpaceOnUse" color-interpolation-filters="sRGB">
<feFlood flood-opacity="0" result="BackgroundImageFix"/>
<feBlend mode="normal" in="SourceGraphic" in2="BackgroundImageFix" result="shape"/>
<feGaussianBlur stdDeviation="80" result="effect1_foregroundBlur_31_100"/>
</filter>
<filter id="filter18_f_31_100" x="793.885" y="532.108" width="1293.38" height="1228.31" filterUnits="userSpaceOnUse" color-interpolation-filters="sRGB">
<feFlood flood-opacity="0" result="BackgroundImageFix"/>
<feBlend mode="normal" in="SourceGraphic" in2="BackgroundImageFix" result="shape"/>
<feGaussianBlur stdDeviation="80" result="effect1_foregroundBlur_31_100"/>
</filter>
<filter id="filter19_f_31_100" x="1117.43" y="534.795" width="1085.06" height="1015.29" filterUnits="userSpaceOnUse" color-interpolation-filters="sRGB">
<feFlood flood-opacity="0" result="BackgroundImageFix"/>
<feBlend mode="normal" in="SourceGraphic" in2="BackgroundImageFix" result="shape"/>
<feGaussianBlur stdDeviation="80" result="effect1_foregroundBlur_31_100"/>
</filter>
</defs>
</svg>
